<svg xmlns="http://www.w3.org/2000/svg" viewBox="0 0 190 190"><defs><style>.cls-1{isolation:isolate;}.cls-2{fill:#bcedf4;}.cls-3{fill:#4d2a22;}.cls-4{fill:#38aa6f;}.cls-5{fill:#e55041;}.cls-6{fill:#f9f1e4;}.cls-7{fill:#ca2f16;}.cls-8{fill:#fdc59d;}.cls-9{fill:#eea47d;}.cls-10,.cls-16{fill:none;stroke:#4d2a22;stroke-miterlimit:10;}.cls-10{stroke-width:2px;}.cls-11{fill:#4f0200;}.cls-12{fill:#a90d00;}.cls-13{fill:#7c0e09;}.cls-14{fill:#7c5850;}.cls-15{fill:#f7fffa;}.cls-16{stroke-width:1.5px;}.cls-17{fill:#fca691;opacity:0.61;mix-blend-mode:multiply;}</style></defs><title>Artboard 1</title><g class="cls-1"><g id="Layer_1" data-name="Layer 1"><circle class="cls-2" cx="94.78" cy="95.45" r="94.16" transform="translate(-10.72 12.01) rotate(-6.86)"/><path class="cls-3" d="M28.71,62.49a107.68,107.68,0,0,0-8,28.76s-16.88,12-9.65,27.45C17,131.41,34.37,131,34.37,131s8.05,20.76,28,22.88c0,0,38.69,1.78,60.74.45,21.45-1.3,30.35-25,30.35-25s20.15,4.08,21.25-22.29c.7-16.76-13.28-28.88-13.28-28.88S160.16,35.58,129.62,23c-12.34-5.11-40.08-6.09-56.95-3.1C50.3,23.82,37.82,41.67,28.71,62.49Z"/><path class="cls-4" d="M94.78,189.61a93.77,93.77,0,0,0,43.09-10.45c-.91-3.95-3.61-14.21-8.34-20.45-8-10.52-52.09-13.65-62.32-1.71-5.31,6.2-9.26,19.26-10.68,24.48A93.69,93.69,0,0,0,94.78,189.61Z"/><path class="cls-5" d="M79.12,151c-5.23,1.24-9.51,3.2-11.91,6-5.31,6.2-9.26,19.26-10.68,24.48a93.65,93.65,0,0,0,20.6,6.43C74.18,174.55,77.27,158.54,79.12,151Z"/><path class="cls-5" d="M115.31,187.34a93.5,93.5,0,0,0,22.56-8.18c-.91-3.95-3.61-14.21-8.34-20.45-2.53-3.34-8.71-5.93-16.3-7.54C115.06,158.67,118,174.19,115.31,187.34Z"/><path class="cls-6" d="M98.35,157.24C98,157.12,92,166,89.1,164.16s-7.36-11.51-5.33-13.42,26.67-1.72,27.1.86c.33,2-1.81,14.11-4.91,13.51S98.35,157.24,98.35,157.24Z"/><path class="cls-7" d="M66.15,158.36c-.28.39-.56.79-.83,1.2a2.39,2.39,0,0,1-.13.21c-.24.38-.48.77-.71,1.17-.06.09-.11.18-.16.27-.26.45-.51.91-.76,1.38l-.16.32c-.23.43-.44.87-.66,1.31l-.1.21L62,165.91c-.05.13-.11.26-.17.39-.22.5-.44,1-.65,1.51l-.06.16c-.2.48-.39.95-.57,1.42l-.15.38c-.2.5-.38,1-.57,1.5l-.11.3c-.16.44-.32.88-.47,1.31,0,.1-.07.2-.1.29l-.49,1.44c0,.11-.07.22-.11.33-.15.45-.29.89-.43,1.33l0,.07c-.14.47-.28.91-.41,1.35l-.08.25c-.13.43-.26.85-.37,1.24v0l-.34,1.17,0,.06c-.1.38-.2.73-.28,1a93.3,93.3,0,0,0,15.64,5.35c.13-14.86-2.23-26-4.12-30.69-.29.28-.58.56-.84.86s-.59.72-.87,1.1Z"/><path class="cls-7" d="M137.45,177.45l0-.07c-.07-.31-.16-.64-.25-1,0-.05,0-.1,0-.15l-.29-1.05v0c-.1-.36-.21-.73-.32-1.11a2.58,2.58,0,0,0-.08-.26c-.11-.38-.23-.77-.35-1.16a1,1,0,0,1-.05-.16c-.12-.35-.23-.71-.35-1.07,0-.1-.07-.2-.1-.3l-.42-1.21c0-.09-.07-.19-.1-.28l-.42-1.12-.08-.21c-.16-.42-.33-.83-.5-1.25,0-.11-.09-.21-.13-.32-.18-.43-.36-.85-.55-1.27l-.06-.12c-.17-.39-.36-.79-.55-1.18,0-.09-.09-.19-.14-.28-.2-.41-.41-.82-.62-1.22l-.12-.22c-.2-.36-.4-.72-.61-1.07a2,2,0,0,1-.11-.2c-.23-.38-.47-.76-.71-1.13l-.16-.23c-.26-.38-.51-.74-.78-1.09h0a8.54,8.54,0,0,0-.91-1l-.22-.19a10.11,10.11,0,0,0-1-.82l-.16-.12c-.4-.29-.83-.58-1.29-.85l0,0c-.51-.3-1-.59-1.6-.87h0c-3,7.25-2.4,20.47-1.1,30.42a94.15,94.15,0,0,0,14.66-6.05C137.76,178.68,137.62,178.1,137.45,177.45Z"/><polygon class="cls-8" points="101.45 143.31 102.25 153.28 98.14 157.17 94.09 153.47 93.62 143.22 101.45 143.31"/><polygon class="cls-9" points="101.45 143.31 93.62 143.22 93.94 150.07 102.02 150.35 101.45 143.31"/><path class="cls-8" d="M162.85,107.09c-.34,9.56-7.71,17-16.46,16.74s-15.59-8.3-15.25-17.85,7.7-17,16.46-16.74S163.18,97.54,162.85,107.09Z"/><path class="cls-9" d="M159.6,106.76c-.2,5.63-4.54,10-9.7,9.87s-9.19-4.9-9-10.53,4.55-10,9.71-9.87S159.8,101.12,159.6,106.76Z"/><path class="cls-8" d="M57.68,101.85c-.33,9.56-7.7,17.05-16.46,16.75S25.64,110.3,26,100.74,33.68,83.7,42.43,84,58,92.3,57.68,101.85Z"/><path class="cls-9" d="M50.88,101.47c-.2,5.64-4.54,10.06-9.71,9.88s-9.19-4.9-9-10.53,4.54-10,9.71-9.87S51.08,95.84,50.88,101.47Z"/><path class="cls-8" d="M105.74,51.68l-18.13-.63c-42.39,2.87-42.9,21.37-43.72,44.7l-.25,7A42.29,42.29,0,0,0,84.4,146.45l18.13.63a42.26,42.26,0,0,0,43.72-40.76l.25-7C147.32,76,153.22,52.83,105.74,51.68Z"/><line class="cls-10" x1="43.11" y1="89.59" x2="49.71" y2="92.05"/><line class="cls-10" x1="138.03" y1="90.88" x2="146.31" y2="86.22"/><path class="cls-11" d="M110,79.52a25.65,25.65,0,0,1,5.86.56,27.91,27.91,0,0,1,2.82.75c.46.15.92.31,1.38.49a3.07,3.07,0,0,0,1.53.38c.6-.08,1.2-.72.77-1.33-.61-.88-1.83-1.17-2.82-1.49a23.9,23.9,0,0,0-3.13-.79,24.59,24.59,0,0,0-6.41-.28c-1.08.07-1.11,1.74,0,1.71Z"/><path class="cls-11" d="M79.56,79.18a25.08,25.08,0,0,0-6.42.06,25.47,25.47,0,0,0-3.12.67,5.25,5.25,0,0,0-2.89,1.42.89.89,0,0,0,.53,1.3A6.88,6.88,0,0,0,70.58,82a26.08,26.08,0,0,1,3-.7,25.5,25.5,0,0,1,6-.37c1.11.07,1.07-1.6,0-1.71Z"/><path class="cls-11" d="M86.57,109c3.73,4.89,11.24,4.6,15-.15.32-.41-.25-1-.57-.57a9.15,9.15,0,0,1-6.89,3.54,9.81,9.81,0,0,1-7.17-3.09c-.17-.17-.5.07-.34.27Z"/><path class="cls-11" d="M91.05,115.15a6.91,6.91,0,0,0,3.41.61,6.45,6.45,0,0,0,1.69-.36,7.52,7.52,0,0,0,.78-.32c.25-.12.57-.24.65-.54a.28.28,0,0,0-.19-.33c-.26-.07-.46.08-.69.19a5.21,5.21,0,0,1-.74.3,7.18,7.18,0,0,1-4.67-.11c-.32-.12-.56.42-.24.56Z"/><path class="cls-11" d="M100.6,108.7l.07,0h0l.14,0c-.09,0,0,0,0,0H101l.07,0s.1,0,0,0,0,0,0,0l.07,0s.06,0,0,0-.07-.06,0,0l0,0,.1.11-.06-.08a1.53,1.53,0,0,0,.14.21.41.41,0,0,0,.48.06.39.39,0,0,0,.18-.45.9.9,0,0,0-.41-.45,1.26,1.26,0,0,0-.42-.16,1.29,1.29,0,0,0-.92.17.3.3,0,0,0,.3.52Z"/><path class="cls-11" d="M105.4,124.2a.5.5,0,0,0,0-1,.5.5,0,0,0,0,1Z"/><circle class="cls-7" cx="150.43" cy="118.2" r="4.5"/><path class="cls-12" d="M148.77,119.06a5,5,0,0,1,2.19-2.59,7.74,7.74,0,0,1,1.47,3A3.63,3.63,0,0,1,148.77,119.06Z"/><path class="cls-13" d="M149.81,118a1.68,1.68,0,0,1,1.49-.31s0,1.17-.54,1.44A1.34,1.34,0,0,1,149.81,118Z"/><path class="cls-12" d="M148.54,116.06a3.17,3.17,0,0,1,4.7.63A7.26,7.26,0,0,0,148.54,116.06Z"/><path class="cls-12" d="M153.88,118.78s.76,3.66-4.11,2.48A6.18,6.18,0,0,0,153.88,118.78Z"/><path class="cls-12" d="M147.74,116.75s-1.77,2.3,1.3,4A21.89,21.89,0,0,1,147.74,116.75Z"/><path class="cls-7" d="M43,114.16a4.5,4.5,0,1,1-4.49-4.49A4.49,4.49,0,0,1,43,114.16Z"/><path class="cls-12" d="M36.88,115a5,5,0,0,1,2.2-2.59,7.79,7.79,0,0,1,1.46,3A3.63,3.63,0,0,1,36.88,115Z"/><path class="cls-13" d="M37.92,114a1.72,1.72,0,0,1,1.49-.31s0,1.17-.54,1.44A1.33,1.33,0,0,1,37.92,114Z"/><path class="cls-12" d="M36.65,112a3.17,3.17,0,0,1,4.7.63A7.33,7.33,0,0,0,36.65,112Z"/><path class="cls-12" d="M42,114.74s.77,3.66-4.11,2.49A6.22,6.22,0,0,0,42,114.74Z"/><path class="cls-12" d="M35.85,112.71s-1.76,2.3,1.31,4A21.72,21.72,0,0,1,35.85,112.71Z"/><path class="cls-3" d="M126.32,26.5c-42-9.12-94.29-5.52-90.69,59A34.15,34.15,0,0,1,41,94.11a2.42,2.42,0,0,0,4.61-.63c.73-5.42,8.57-25.5,10.2-31.41,5.33.77,10.65,1.3,15.88,1.64-4.28,2.5-9,4.5-13.68,4.95,0,0,28.9,10.15,41.92-4.27,0,0-8.76,13.49-29.7,12.56,0,0,32.06,16.22,60.13-15.61l.2,0c0,1.81.82,16.29,12.19,24.93,1.49,10.25,2.1,19.66,3.28,19.66,2.43,0,.72-15.83,10.29-14C156.28,92,166.32,35.19,126.32,26.5Z"/><path class="cls-14" d="M73.52,39.51c3.21,2.27-3.21,7-6.42,5.86S70.31,37.24,73.52,39.51Z"/><path class="cls-14" d="M70.39,30.72c3.32,4.07-6.12,11.42-11.14,8.63S67,26.52,70.39,30.72Z"/><path class="cls-15" d="M114.15,113.94h0a10.62,10.62,0,0,0,10.61-10.64V97.67a10.63,10.63,0,0,0-10.64-10.62h0A10.63,10.63,0,0,0,103.5,97.7v5.62A10.65,10.65,0,0,0,114.15,113.94Z"/><path class="cls-3" d="M103.5,97.7a10.57,10.57,0,0,1,3.6-8,7.76,7.76,0,0,1,2.64-.47c5.18,0,9.38,5.16,9.39,11.55s-4.18,11.57-9.36,11.58a7.87,7.87,0,0,1-1.38-.14,10.63,10.63,0,0,1-4.89-8.92Z"/><path class="cls-15" d="M74.52,113.94h0a10.63,10.63,0,0,1-10.77-10.48l-.08-5.63A10.62,10.62,0,0,1,74.15,87.06h0A10.61,10.61,0,0,1,84.92,97.53l.08,5.63A10.63,10.63,0,0,1,74.52,113.94Z"/><path class="cls-3" d="M84.92,97.53a10.55,10.55,0,0,0-3.72-7.91,7.84,7.84,0,0,0-2.65-.44c-5.18.07-9.3,5.31-9.21,11.7s4.36,11.5,9.54,11.43a7,7,0,0,0,1.38-.16,10.58,10.58,0,0,0,4.74-9Z"/><path class="cls-10" d="M89.86,98.57a20.64,20.64,0,0,1-41.28,0c0-11.4,8.68-15.84,20.07-15.84S89.86,87.17,89.86,98.57Z"/><path class="cls-10" d="M98.1,98.57a20.64,20.64,0,0,0,41.27,0c0-11.4-8.68-15.84-20.07-15.84S98.1,87.17,98.1,98.57Z"/><path class="cls-16" d="M89.34,102.54s3.75-2.72,9.45.13"/><path class="cls-11" d="M94.91,102.28c-.44.83-.9,1.65-1.3,2.49l.78-.1c-.37-.47-.75-.94-1.16-1.37l-.63-.63A2.36,2.36,0,0,1,92,102a.4.4,0,0,0-.72.09,8.78,8.78,0,0,0-.16,1.13c0,.34,0,.68-.07,1s0,.68,0,1a2.49,2.49,0,0,0,.14,1.15.42.42,0,0,0,.76-.1,3.07,3.07,0,0,0,0-1c0-.35,0-.69,0-1,0-.68.1-1.36.09-2l-.59.34a2.09,2.09,0,0,1,.61.61c.18.22.34.45.51.69.34.48.69,1,1,1.44a.5.5,0,0,0,.86,0c.46-.81.87-1.66,1.3-2.48a.51.51,0,0,0-.18-.69.5.5,0,0,0-.68.18Z"/><path class="cls-17" d="M74,122.64c-.62,4-5.34,6.51-10.54,5.69s-8.91-4.67-8.29-8.63,5.34-6.5,10.53-5.69S74.63,118.69,74,122.64Z"/><path class="cls-17" d="M135.6,117.72c.81,3.92-2.7,8-7.85,9s-10-1.24-10.81-5.16,2.71-8,7.86-9S134.79,113.8,135.6,117.72Z"/></g></g></svg>