<svg xmlns="http://www.w3.org/2000/svg" viewBox="0 0 190 190"><defs><style>.cls-1{isolation:isolate;}.cls-2{fill:#bcedf4;}.cls-3{fill:#d2580f;}.cls-4{fill:#f9f1e4;}.cls-5{fill:#4d2a22;}.cls-6{fill:#f7fffa;}.cls-7{fill:#f58345;}.cls-8{fill:#fdc59d;}.cls-9{fill:#eea47d;}.cls-10{fill:#4f0200;}.cls-11{fill:#6c4b41;}.cls-12{fill:#7c5850;}.cls-13{fill:#fca691;opacity:0.61;mix-blend-mode:multiply;}</style></defs><title>Artboard 1</title><g class="cls-1"><g id="Layer_1" data-name="Layer 1"><circle class="cls-2" cx="95.26" cy="95.45" r="94.16" transform="translate(-39.59 95.32) rotate(-45)"/><path class="cls-3" d="M95.26,189.61a93.77,93.77,0,0,0,43.09-10.45c-.91-3.95-3.61-14.21-8.33-20.45-8-10.52-52.09-13.65-62.32-1.71-5.32,6.2-9.26,19.26-10.69,24.48A93.73,93.73,0,0,0,95.26,189.61Z"/><path class="cls-4" d="M76.34,151.9c3.32,9.26,10.82,27.13,21,32.62,0,0,17-12.42,21.73-32C106.76,148.77,88.06,148.06,76.34,151.9Z"/><path class="cls-5" d="M100.76,163.21s-5.18.27-5,.07c0,0-2.44,9-4.29,16.48a23.54,23.54,0,0,0,5.87,4.76,60.21,60.21,0,0,0,7.45-6.84C103,170.62,100.76,163.21,100.76,163.21Z"/><path class="cls-5" d="M102.35,156.38c.6.78.43,7.27-.43,7.62s-7.22.92-8.08.06-1-7.51-1-7.51S101.75,155.61,102.35,156.38Z"/><path class="cls-6" d="M98.63,156.36c-.36-.11-6.39,8.72-9.25,6.93S82,151.77,84.05,149.87s26.67-1.72,27.1.86c.33,2-1.81,14.1-4.91,13.51S98.63,156.36,98.63,156.36Z"/><path class="cls-7" d="M66.63,158.36c-.28.39-.55.79-.82,1.2a2.39,2.39,0,0,0-.13.21q-.36.57-.72,1.17c0,.09-.1.18-.16.27q-.37.67-.75,1.38l-.17.32c-.22.43-.44.87-.65,1.31l-.11.21c-.23.49-.46,1-.68,1.48-.06.13-.12.26-.17.39-.22.5-.44,1-.65,1.51,0,.06,0,.11-.07.16L61,169.39l-.15.38c-.19.5-.38,1-.56,1.5,0,.1-.08.2-.11.3-.17.44-.32.88-.47,1.31,0,.1-.07.2-.11.29l-.49,1.44c0,.11-.07.22-.1.33-.15.45-.3.89-.44,1.33l0,.07c-.15.47-.29.91-.42,1.35,0,.08,0,.17-.08.25-.13.43-.25.85-.37,1.24v0q-.18.61-.33,1.17l0,.06c-.11.38-.2.73-.29,1a93.72,93.72,0,0,0,15.65,5.35c.13-14.86-2.23-26-4.12-30.69a9.69,9.69,0,0,0-.84.86c-.3.34-.59.72-.88,1.1Z"/><path class="cls-7" d="M137.94,177.45l0-.07-.26-1a.83.83,0,0,0,0-.15l-.28-1.05v0c-.1-.36-.21-.73-.32-1.11a2.58,2.58,0,0,1-.08-.26c-.12-.38-.23-.77-.36-1.16a1,1,0,0,0,0-.16c-.11-.35-.23-.71-.35-1.07,0-.1-.06-.2-.1-.3-.13-.4-.27-.8-.42-1.21l-.1-.28c-.13-.37-.27-.74-.42-1.12a1.8,1.8,0,0,0-.08-.21c-.16-.42-.32-.83-.49-1.25-.05-.11-.09-.22-.14-.32-.18-.43-.36-.85-.55-1.27l-.05-.12-.55-1.18c-.05-.09-.1-.19-.14-.28-.2-.41-.41-.82-.63-1.22l-.12-.22c-.2-.37-.4-.72-.61-1.07a2,2,0,0,0-.11-.2c-.23-.38-.47-.76-.71-1.13l-.16-.23c-.25-.38-.51-.74-.77-1.09h0a9.63,9.63,0,0,0-.92-1,1.9,1.9,0,0,0-.21-.19c-.31-.28-.63-.56-1-.82l-.17-.12c-.4-.29-.82-.58-1.28-.85l-.06,0q-.75-.45-1.59-.87h0c-3,7.25-2.41,20.47-1.11,30.42a93.35,93.35,0,0,0,14.66-6.05C138.24,178.68,138.1,178.1,137.94,177.45Z"/><polygon class="cls-8" points="101.94 143.31 102.74 153.28 98.62 157.32 94.58 153.47 94.1 143.22 101.94 143.31"/><polygon class="cls-9" points="101.94 143.31 94.1 143.22 94.42 150.07 102.5 150.35 101.94 143.31"/><path class="cls-8" d="M163.33,107.09c-.33,9.55-7.7,17-16.46,16.74s-15.58-8.3-15.25-17.85,7.71-17,16.46-16.74S163.67,97.54,163.33,107.09Z"/><path class="cls-9" d="M160.09,106.76c-.2,5.63-4.55,10-9.71,9.87s-9.19-4.9-9-10.53,4.54-10,9.71-9.87S160.28,101.12,160.09,106.76Z"/><path class="cls-8" d="M58.17,101.85c-.34,9.56-7.71,17.05-16.46,16.75s-15.59-8.3-15.25-17.86,7.7-17,16.46-16.74S58.5,92.3,58.17,101.85Z"/><path class="cls-9" d="M51.36,101.47c-.19,5.64-4.54,10.06-9.7,9.88s-9.19-4.9-9-10.53,4.54-10,9.7-9.87S51.56,95.84,51.36,101.47Z"/><path class="cls-8" d="M106.22,51.68,88.1,51.05c-49.72,1-42.91,21.37-43.73,44.7l-.24,7a42.27,42.27,0,0,0,40.76,43.73l18.13.63a42.26,42.26,0,0,0,43.72-40.76l.24-7C147.8,76,158.93,46.34,106.22,51.68Z"/><path class="cls-10" d="M111.08,75.79a27.72,27.72,0,0,1,6,0,24.2,24.2,0,0,1,2.93.49c1,.22,2,.76,3,.53a.9.9,0,0,0,.4-1.48c-.67-.78-2.1-.94-3.06-1.14a28.12,28.12,0,0,0-3.17-.45,24.77,24.77,0,0,0-6.37.38c-.94.16-.74,1.8.22,1.68Z"/><path class="cls-10" d="M80.31,74.11a24.82,24.82,0,0,0-6.38-.38,28,28,0,0,0-3.16.45c-1,.2-2.39.36-3.06,1.14a.9.9,0,0,0,.39,1.48c1,.23,2.05-.31,3-.53A24,24,0,0,1,74,75.78a27.72,27.72,0,0,1,6,0c1,.12,1.18-1.52.23-1.68Z"/><path class="cls-11" d="M156.92,38.37c-14.81-22-43.14-19-49.15-18.11-1.23-6-4.47-12.38-12.68-12.6C79.31,7.24,56.71,28.56,45.62,32.4c-9.68,3.35-18.5,15.8-19.18,29.85-.86,17.48,13.85,48.15,18.76,43.92,2.06-1.78,1.64-10.41,2.19-21.09,2.12-11.3,3.44-23.21,9.75-26.67a22.57,22.57,0,0,1,4-1.7c11.36,11.5,26.28,3,26.28,3L72.49,71.63c21.32,1.7,27.29-9.81,27.29-9.81-1.7,5.12-14.07,14.07-14.07,14.07,19.09-3.65,25.43-14.69,27.53-21.81,6.64-1.18,11.56-1.56,18.52,1.34,15.36,6.4,12.3,50.49,14.72,50.49s.72-15.83,10.28-14a97,97,0,0,0,1.12-15.6C162.78,67.35,166.88,53.17,156.92,38.37Z"/><path class="cls-12" d="M74,39.51c3.22,2.27-3.21,7-6.42,5.86S70.79,37.24,74,39.51Z"/><path class="cls-12" d="M70.88,30.72c3.31,4.07-6.13,11.42-11.14,8.63S67.46,26.52,70.88,30.72Z"/><path class="cls-10" d="M84.9,116.49c3.47-.18,6.93-.34,10.4-.44q2.55-.08,5.1-.12c1.75,0,3.56.07,5.3-.12a.31.31,0,0,0,0-.61,46.87,46.87,0,0,0-5.3.07q-2.55.08-5.1.18c-3.47.13-6.93.28-10.4.47-.36,0-.36.59,0,.57Z"/><path class="cls-10" d="M92.33,119.88h5.12a14.59,14.59,0,0,0,1.75,0,.29.29,0,0,0,0-.57,17,17,0,0,0-1.75,0H92.33a.29.29,0,0,0,0,.57Z"/><path class="cls-6" d="M114.63,113.94h0a10.62,10.62,0,0,0,10.61-10.64V97.67A10.64,10.64,0,0,0,114.6,87.05h0A10.64,10.64,0,0,0,104,97.7v5.62A10.63,10.63,0,0,0,114.63,113.94Z"/><path class="cls-11" d="M104,97.7a10.61,10.61,0,0,1,3.6-8,7.8,7.8,0,0,1,2.64-.47c5.18,0,9.39,5.16,9.39,11.55s-4.18,11.57-9.36,11.58a7.87,7.87,0,0,1-1.38-.14,10.6,10.6,0,0,1-4.88-8.92Z"/><path class="cls-6" d="M75,113.94h0a10.63,10.63,0,0,1-10.78-10.48l-.08-5.63A10.62,10.62,0,0,1,74.63,87.06h0A10.62,10.62,0,0,1,85.41,97.53l.08,5.63A10.64,10.64,0,0,1,75,113.94Z"/><path class="cls-11" d="M85.41,97.53a10.62,10.62,0,0,0-3.72-7.91A7.88,7.88,0,0,0,79,89.18c-5.18.07-9.31,5.31-9.22,11.7s4.36,11.5,9.54,11.43a7,7,0,0,0,1.38-.16,10.61,10.61,0,0,0,4.75-9Z"/><path class="cls-5" d="M153.7,83.6c-4.93-2-38.18-11.43-54.8,6.89,0,0-.13.72-.25,1.93a24.06,24.06,0,0,0-5.78-.21c-.07-.51-.12-.81-.12-.81C78.88,70.86,42.43,81.63,37.5,83.6s-5.18,6.65-3.21,10.59,7.4,1.73,7.4,1.73c-1,21.92,6.92,28.9,27.59,27.84S93,106.6,93.14,97.52a12.87,12.87,0,0,1,5.29-.17c.1,9.43,3.27,25.37,23.49,26.41,20.67,1.06,28.58-5.92,27.59-27.84,0,0,5.42,2.21,7.39-1.73S158.63,85.57,153.7,83.6Zm-94.52,35c-16.51-3.94-13.62-30.43-13.62-30.43,30.12-9.51,43,3.3,43,3.3C90.06,112.39,75.69,122.53,59.18,118.58Zm72.84,0c-16.51,4-30.88-6.19-29.41-27.13,0,0,12.91-12.81,43-3.3C145.64,88.15,148.53,114.64,132,118.58Z"/><path class="cls-10" d="M96.69,102.28c-.43.83-.9,1.65-1.3,2.49l.78-.1A15,15,0,0,0,95,103.3l-.62-.63a2.56,2.56,0,0,1-.59-.68.4.4,0,0,0-.72.09,10.93,10.93,0,0,0-.15,1.13c0,.34-.06.68-.07,1s0,.68,0,1a2.78,2.78,0,0,0,.14,1.15.43.43,0,0,0,.77-.1,3.08,3.08,0,0,0,0-1c0-.35,0-.69,0-1,0-.68.09-1.36.09-2l-.6.34a2.09,2.09,0,0,1,.61.61c.18.22.35.45.52.69.34.48.68,1,1,1.44a.5.5,0,0,0,.86,0c.47-.81.87-1.66,1.31-2.49a.5.5,0,0,0-.87-.5Z"/><path class="cls-13" d="M74.77,123.73c-.62,4-5.33,6.5-10.53,5.69s-8.91-4.68-8.29-8.64,5.33-6.5,10.53-5.69S75.39,119.77,74.77,123.73Z"/><path class="cls-13" d="M136.36,118.8c.81,3.92-2.71,8-7.86,9s-10-1.24-10.8-5.16,2.7-8,7.85-9S135.54,114.88,136.36,118.8Z"/></g></g></svg>